<svg height="512" viewBox="0 0 64 64" width="512" xmlns="http://www.w3.org/2000/svg"><g id="virus-covid19-corona-breath-tempurature"><path d="m10 21a1.975 1.975 0 0 0 -.777.157 1.989 1.989 0 0 1 .777-.157z" fill="#9bc9ff"/><path d="m8.157 22.223a1.975 1.975 0 0 0 -.157.777 1.989 1.989 0 0 1 .157-.777z" fill="#9bc9ff"/><path d="m5 51h24a10 10 0 0 1 10 10 0 0 0 0 1 0 0h-36a0 0 0 0 1 0 0v-8a2 2 0 0 1 2-2z" fill="#006df0"/><path d="m36.8 61h2.2a10 10 0 0 0 -10-10h-24a2 2 0 0 0 -2 2h24a10 10 0 0 1 9.8 8z" fill="#005ece"/><circle cx="55" cy="34" fill="none" r="1"/><path d="m57.12 9.88a3 3 0 0 0 -5.12 2.12v7l6 .01v-7.01a2.993 2.993 0 0 0 -.88-2.12z" fill="#ff5023"/><path d="m60 34a5 5 0 1 1 -8-4v-11l6 .01v10.99a5.01 5.01 0 0 1 2 4z" fill="#006df0"/><path d="m10 30a2.006 2.006 0 0 1 -2-2 2 2 0 0 0 2 2z" fill="#9bc9ff"/><path d="m8.157 22.223a2.08 2.08 0 0 1 1.066-1.066 2 2 0 0 0 -1.066 1.066z" fill="#9bc9ff"/><circle cx="55" cy="54" fill="#ab2300" r="2"/><path d="m33 21v-6a4 4 0 0 0 -4-4h-15a4 4 0 0 0 -4 4v6a2 2 0 0 0 -2 2v5a2 2 0 0 0 2 2v21h16v-8h6v-4h-4a3 3 0 0 1 -2.99-3.22 3.111 3.111 0 0 1 3.16-2.78h3.83v-3h4z" fill="#ffbcab"/><g fill="#ff9478"><path d="m28.17 33h-2a3.111 3.111 0 0 0 -3.16 2.78 3 3 0 0 0 2.99 3.22h2a3 3 0 0 1 -2.99-3.22 3.111 3.111 0 0 1 3.16-2.78z"/><path d="m24 43h2v8h-2z"/><path d="m33 21v-6a4 4 0 0 0 -4-4h-2a4 4 0 0 1 4 4v6l3 9h2z"/><path d="m30 39h2v4h-2z"/><path d="m30 33h2v-3h-1a1 1 0 0 0 -1 1z"/></g><path d="m13 3a10 10 0 0 0 -10 10v16.2a14.007 14.007 0 0 0 2.95 8.59l4.05 5.21v-13a2 2 0 0 1 -2-2v-5a2 2 0 0 1 2-2v-6a4 4 0 0 1 4-4h17a6 6 0 0 0 6-6v-2z" fill="#58595b"/><path d="m35 3a6 6 0 0 1 -6 6h-17a4 4 0 0 0 -4 4v10a2 2 0 0 1 2-2v-6a4 4 0 0 1 4-4h17a6 6 0 0 0 6-6v-2z" fill="#414042"/><path d="m10 43v-13a2 2 0 0 1 -2-2v12.427z" fill="#414042"/><path d="m10 21a2 2 0 0 0 -2 2v5a2 2 0 0 0 2 2h2v-9z" fill="#dfa596"/><path d="m61.2 52.732a2 2 0 1 0 -2.995-1.732l-1.269.732a3 3 0 0 0 -.936-.548v-1.462a2 2 0 1 0 -2 0v1.462a3 3 0 0 0 -.936.543l-1.264-.727a2 2 0 1 0 -1 1.732l1.26.728a2.728 2.728 0 0 0 0 1.09l-1.26.728a2 2 0 1 0 1 1.732l1.269-.732a3 3 0 0 0 .936.543v1.462a2 2 0 1 0 2 0v-1.467a3 3 0 0 0 .936-.543l1.269.732a2 2 0 1 0 1-1.732l-1.26-.728a2.728 2.728 0 0 0 0-1.09l1.26-.728a1.991 1.991 0 0 0 1.99.005zm-6.2 2.268a1 1 0 1 1 1-1 1 1 0 0 1 -1 1z" fill="#ed1c24"/><path d="m55 6a1 1 0 0 0 1-1v-2a1 1 0 0 0 -2 0v2a1 1 0 0 0 1 1z" fill="#ff9811"/><path d="m49.343 7.757a1 1 0 0 0 1.414-1.414l-1.414-1.414a1 1 0 0 0 -1.414 1.414z" fill="#ff9811"/><path d="m59.95 8.05a1 1 0 0 0 .707-.293l1.414-1.414a1 1 0 1 0 -1.414-1.414l-1.414 1.414a1 1 0 0 0 .707 1.707z" fill="#ff9811"/><path d="m24.105 21.447a1 1 0 0 0 1.342.448l4-2a1 1 0 0 0 0-1.79l-4-2a1 1 0 1 0 -.894 1.79l2.211 1.105-2.211 1.105a1 1 0 0 0 -.448 1.342z" fill="#58595b"/><path d="m32 35a1 1 0 0 0 0 2h10a1 1 0 0 0 0-2z" fill="#ab2300"/><path d="m40 39h-4a1 1 0 0 0 0 2h4a3 3 0 0 1 3 3v4a1 1 0 0 0 2 0v-4a5.006 5.006 0 0 0 -5-5z" fill="#ed1c24"/><path d="m39 33h3a5.006 5.006 0 0 0 5-5v-1a1 1 0 0 0 -2 0v1a3 3 0 0 1 -3 3h-3a1 1 0 0 0 0 2z" fill="#cd2a00"/><path d="m44 51a1 1 0 0 0 -1 1v1a1 1 0 0 0 2 0v-1a1 1 0 0 0 -1-1z" fill="#ab2300"/><path d="m44 56a1 1 0 0 0 -1 1v1a1 1 0 0 0 2 0v-1a1 1 0 0 0 -1-1z" fill="#ab2300"/><path d="m47 35h-1a1 1 0 0 0 0 2h1a1 1 0 0 0 0-2z" fill="#ab2300"/><path d="m55 12h3v2h-3z" fill="#004fac"/><path d="m55 15h3v2h-3z" fill="#004fac"/><path d="m56 32.278v-13.278h-2v13.278a2 2 0 1 0 2 0z" fill="#ab2300"/><path d="m55 18h3v2h-3z" fill="#004fac"/><path d="m55 21h3v2h-3z" fill="#004fac"/><path d="m55 24h3v2h-3z" fill="#004fac"/><path d="m55 27h3v2h-3z" fill="#004fac"/></g></svg>