<svg xmlns="http://www.w3.org/2000/svg" xmlns:xlink="http://www.w3.org/1999/xlink" width="595" height="842" viewBox="0 0 595 842">
  <defs>
    <clipPath id="clip-path">
      <rect id="Rectangle_1" data-name="Rectangle 1" width="595" height="842" fill="#fff" stroke="#707070" stroke-width="1"/>
    </clipPath>
  </defs>
  <g id="Mask_Group_1" data-name="Mask Group 1" clip-path="url(#clip-path)">
    <g id="coronavirus" transform="translate(0 123.5)">
      <path id="Path_3" data-name="Path 3" d="M218.706,295.92l-18.854,35.351c-.027.051-.055.1-.083.152a87.1,87.1,0,1,1-144.412,9.291c-.034-.046-.069-.093-.1-.141L32.027,307.93a7.863,7.863,0,0,1,10.106-11.5l35.353,18.854.152.083a86.665,86.665,0,0,1,34.45-15.993l4.486-26.623a7.091,7.091,0,0,1,13.776-.887L138.21,297.7a86.663,86.663,0,0,1,36.215,11.446c.046-.034.093-.069.141-.1l32.644-23.229a7.864,7.864,0,0,1,11.5,10.109ZM500.335,123.607l22.216-35.9A11.086,11.086,0,0,0,507.29,72.451l-35.9,22.215a136.155,136.155,0,1,0,28.94,28.941Z" fill="#f76c57"/>
      <path id="Path_4" data-name="Path 4" d="M102.469,186.677a23.67,23.67,0,1,1-23.67-23.67A23.67,23.67,0,0,1,102.469,186.677ZM447.7,461.041a12.375,12.375,0,1,0,12.375,12.375A12.376,12.376,0,0,0,447.7,461.041ZM218.408,115.926A12.375,12.375,0,1,0,230.783,128.3,12.376,12.376,0,0,0,218.408,115.926Z" fill="#f44545"/>
      <path id="Path_5" data-name="Path 5" d="M100.353,196.474A23.673,23.673,0,1,1,69,165.124a23.68,23.68,0,0,0,31.35,31.35Z" fill="#d63030"/>
      <path id="Path_6" data-name="Path 6" d="M480.024,283.578c8.861-2.55,15.406,8.228,9.031,14.889A136.186,136.186,0,0,1,309.939,314l-35.6,22.034a11.362,11.362,0,0,1-12.641-.271,11.091,11.091,0,0,1-2.913-14.809L281,285.06a136.188,136.188,0,0,1,15.422-179.01c6.686-6.413,17.509.167,14.958,9.073a136.259,136.259,0,0,0-5.253,37.581c0,75.03,61.14,136.17,136.17,136.169a136.176,136.176,0,0,0,37.729-5.295ZM206.1,428.351c-.034-.048-.067-.094-.1-.141a86.968,86.968,0,0,0,11.259-53.151,5.281,5.281,0,0,0-10.062-1.62,87.148,87.148,0,0,1-15.336,23.292c-31.343,34.206-84.812,37.647-120.281,7.741a87.169,87.169,0,0,1-18.236-21.2,5.26,5.26,0,0,0-9.733,2.882,86.971,86.971,0,0,0,17.88,51.221l-17.36,32.552a7.991,7.991,0,0,0,.866,9.018,7.745,7.745,0,0,0,10.313,1.2L85.3,458.808a86.637,86.637,0,0,0,37.849,12.421l7.78,25.562a7.318,7.318,0,0,0,6.4,5.278,7.092,7.092,0,0,0,7.456-5.9l4.486-26.623a86.682,86.682,0,0,0,34.45-15.993l.152.083,35.078,18.708a8.116,8.116,0,0,0,9.157-.879,7.865,7.865,0,0,0,1.221-10.472Z" fill="#f44545"/>
      <path id="Path_7" data-name="Path 7" d="M256.789,230.655,195.811,216.3a12.294,12.294,0,0,1,0-23.934l60.978-14.356a27.042,27.042,0,1,1,0,52.645Zm58.447,48.452,51.025-24.249a24.386,24.386,0,1,0-29.66-37.068l-34.848,44.465a11.086,11.086,0,0,0,13.484,16.852ZM114.261,397.759A15.6,15.6,0,0,0,98.209,416.2l6.643,35.515a7.09,7.09,0,0,0,13.788.638l9.9-34.748a15.594,15.594,0,0,0-14.277-19.851ZM211.354,57.074A23.669,23.669,0,1,0,187.684,33.4,23.67,23.67,0,0,0,211.354,57.074Zm-40.79,338.29a15.6,15.6,0,1,0-22.623,20.249L177.566,436.3a7.09,7.09,0,0,0,10.286-9.205ZM547.88,418.318a23.67,23.67,0,1,0,23.67,23.67A23.67,23.67,0,0,0,547.88,418.318Zm37.643-225.951-60.978-14.356a27.041,27.041,0,1,0,0,52.644L585.523,216.3a12.293,12.293,0,0,0,0-23.932ZM389.251,455.259a4.3,4.3,0,0,0-4.846-6.669l-20.573,7.32a4.3,4.3,0,0,1-5.736-4.167l.158-5.73a9.041,9.041,0,0,0-16.5-5.36l-3.24,4.73a4.3,4.3,0,0,1-7.09,0l-12.342-18.014a4.3,4.3,0,0,0-7.841,2.547l.6,21.828a4.3,4.3,0,0,1-5.736,4.167l-5.4-1.922a9.041,9.041,0,0,0-10.2,14.032l3.5,4.543a4.3,4.3,0,0,1-2.191,6.743l-20.946,6.171a4.3,4.3,0,0,0,0,8.244l20.946,6.171a4.3,4.3,0,0,1,2.191,6.743l-3.5,4.543a9.041,9.041,0,0,0,10.2,14.033l5.4-1.922a4.3,4.3,0,0,1,5.736,4.167l-.6,21.828a4.3,4.3,0,0,0,7.841,2.547l12.342-18.014a4.3,4.3,0,0,1,7.09,0l3.24,4.73a9.041,9.041,0,0,0,16.5-5.36l-.158-5.73a4.3,4.3,0,0,1,5.736-4.167l20.573,7.32a4.3,4.3,0,0,0,4.846-6.669l-13.319-17.3a4.3,4.3,0,0,1,2.191-6.743l5.5-1.62a9.041,9.041,0,0,0,0-17.346l-5.5-1.62a4.3,4.3,0,0,1-2.191-6.743Zm1.415-150.285a27.041,27.041,0,0,0-26.322,33.237L378.7,399.19a12.293,12.293,0,0,0,23.932,0l14.356-60.979A27.041,27.041,0,0,0,390.666,304.974Zm11.967-295.5a12.294,12.294,0,0,0-23.934,0L364.345,70.455a27.041,27.041,0,1,0,52.644,0Z" fill="#f76c57"/>
      <path id="Path_8" data-name="Path 8" d="M226.029,42.4a23.634,23.634,0,0,0,7.709-1.284,23.673,23.673,0,1,1-30.1-30.1A23.686,23.686,0,0,0,226.029,42.4ZM562.555,450.982A23.686,23.686,0,0,1,540.169,419.6a23.673,23.673,0,1,0,30.094,30.1A23.652,23.652,0,0,1,562.555,450.982Z" fill="#fb5858"/>
      <path id="Path_9" data-name="Path 9" d="M466.4,395.339a12.375,12.375,0,1,1-12.375-12.375A12.375,12.375,0,0,1,466.4,395.339ZM141.519,231.386a12.375,12.375,0,1,0-12.375,12.375A12.375,12.375,0,0,0,141.519,231.386Zm-26.24,141.039a14.908,14.908,0,1,0,1.354,21.04,14.908,14.908,0,0,0-1.354-21.04Zm-5.756-31.339a15.36,15.36,0,0,0,5.063-23.544L91.96,290.081a6.982,6.982,0,0,0-12.193,6.01l8,34.672a15.358,15.358,0,0,0,21.756,10.324Zm-55.692,31.87L19.791,383.318a6.983,6.983,0,0,0,.873,13.566L55.751,402.8a15.36,15.36,0,1,0-1.92-29.841Zm102.184,5.371a7.795,7.795,0,1,0,.708,11A7.795,7.795,0,0,0,156.016,378.328Zm84.676-9.225L205.6,363.191a15.359,15.359,0,1,0,1.92,29.84l34.041-10.361a6.982,6.982,0,0,0-.873-13.565Zm94.9,93.161A27.335,27.335,0,1,0,362.928,489.6,27.335,27.335,0,0,0,335.593,462.264ZM209.411,325.033a6.983,6.983,0,0,0-7.834-3.716l-34.672,8a15.359,15.359,0,1,0,13.22,26.82l27.462-22.626A6.984,6.984,0,0,0,209.411,325.033Zm-60.676,2.034a7.795,7.795,0,1,0-11,.708A7.795,7.795,0,0,0,148.735,327.066Z" fill="#fb5858"/>
      <g id="Group_1" data-name="Group 1">
        <path id="Path_10" data-name="Path 10" d="M359.4,503.04a27.338,27.338,0,1,1-37.249-37.249A27.343,27.343,0,0,0,359.4,503.04Z" fill="#f44545"/>
        <path id="Path_11" data-name="Path 11" d="M522.551,320.956a11.086,11.086,0,0,1-15.261,15.261l-48.038-29.73a24.386,24.386,0,1,1,33.569-33.569ZM322.082,102.18l-48.038-29.73A11.086,11.086,0,0,0,258.783,87.71l29.73,48.038a24.386,24.386,0,1,0,33.569-33.569ZM460.872,60.77a11.086,11.086,0,0,0-19.948-8.239L407.967,98.414a24.386,24.386,0,1,0,43.878,18.123Zm77.663,163.452-45.884-32.957a24.385,24.385,0,1,0-18.123,43.878l55.767,9.028a11.087,11.087,0,0,0,8.239-19.949Zm-128.119-6.941a12.375,12.375,0,1,0,12.375,12.375A12.376,12.376,0,0,0,410.415,217.281Zm65.868-50.039a12.375,12.375,0,1,0-12.375-12.375A12.376,12.376,0,0,0,476.284,167.241ZM363.457,151.225a23.67,23.67,0,1,0,23.67,23.67A23.67,23.67,0,0,0,363.457,151.225Z" fill="#f44545"/>
      </g>
    </g>
  </g>
</svg>
