<svg xmlns="http://www.w3.org/2000/svg" xmlns:xlink="http://www.w3.org/1999/xlink" width="564" height="578.836" viewBox="0 0 564 578.836">
  <defs>
    <clipPath id="clip-path">
      <rect id="Rectangle_2" data-name="Rectangle 2" width="392" height="557" transform="translate(0.336 -0.262)" fill="#fff" stroke="#707070" stroke-width="1"/>
    </clipPath>
    <clipPath id="clip-path-2">
      <rect id="Rectangle_1" data-name="Rectangle 1" width="392" height="557" transform="translate(0)" fill="#fff" stroke="#707070" stroke-width="1"/>
    </clipPath>
  </defs>
  <g id="Group_1" data-name="Group 1" transform="translate(-33 -107)">
    <g id="Mask_Group_2" data-name="Mask Group 2" transform="translate(32.664 107.262)" clip-path="url(#clip-path)">
      <g id="Mask_Group_1" data-name="Mask Group 1" transform="translate(0.336 -0.262)" clip-path="url(#clip-path-2)">
        <g id="coronavirus" transform="translate(9.495 81.948)">
          <path id="Path_3" data-name="Path 3" d="M155.026,218.828l-12.472,23.386c-.018.034-.036.066-.055.1a57.619,57.619,0,1,1-95.532,6.146c-.023-.03-.046-.062-.066-.093L31.533,226.773a5.2,5.2,0,0,1,6.685-7.608l23.387,12.472.1.055a57.331,57.331,0,0,1,22.79-10.58L87.463,203.5a4.691,4.691,0,0,1,9.113-.587l5.2,17.091a57.33,57.33,0,0,1,23.957,7.572c.03-.022.062-.046.093-.066l21.595-15.367a5.2,5.2,0,0,1,7.608,6.687Zm186.3-113.989,14.7-23.749A7.334,7.334,0,0,0,345.932,71l-23.749,14.7a90.07,90.07,0,1,0,19.145,19.145Z" transform="translate(-20.165 -23.068)" fill="#f76c57"/>
          <path id="Path_4" data-name="Path 4" d="M86.446,162.73a15.658,15.658,0,1,1-15.658-15.658A15.658,15.658,0,0,1,86.446,162.73Zm228.379,181.5a8.186,8.186,0,1,0,8.186,8.186,8.186,8.186,0,0,0-8.186-8.186Zm-151.682-228.3a8.186,8.186,0,1,0,8.186,8.186,8.186,8.186,0,0,0-8.186-8.186Z" transform="translate(-28.478 -39.236)" fill="#f44545"/>
          <path id="Path_5" data-name="Path 5" d="M85.046,185.863a15.66,15.66,0,1,1-20.741-20.739,15.665,15.665,0,0,0,20.739,20.739Z" transform="translate(-28.479 -55.888)" fill="#d63030"/>
          <path id="Path_6" data-name="Path 6" d="M332.145,222.621a5.964,5.964,0,0,1,5.974,9.849,90.091,90.091,0,0,1-118.49,10.275l-23.55,14.576a7.516,7.516,0,0,1-8.362-.179,7.337,7.337,0,0,1-1.927-9.8l14.7-23.745a90.092,90.092,0,0,1,10.2-118.42,5.992,5.992,0,0,1,9.9,6A90.152,90.152,0,0,0,332.146,222.621ZM150.937,318.392l-.066-.093a57.532,57.532,0,0,0,7.448-35.161,3.494,3.494,0,0,0-6.656-1.072,57.653,57.653,0,0,1-101.778,6.5,3.48,3.48,0,0,0-6.439,1.907,57.534,57.534,0,0,0,11.828,33.884L43.791,345.9a5.286,5.286,0,0,0,.573,5.966,5.124,5.124,0,0,0,6.822.794L71.025,338.54a57.313,57.313,0,0,0,25.038,8.217l5.147,16.91a4.841,4.841,0,0,0,4.234,3.492,4.691,4.691,0,0,0,4.932-3.9l2.968-17.612a57.342,57.342,0,0,0,22.79-10.58l.1.055,23.2,12.376a5.369,5.369,0,0,0,6.058-.581,5.2,5.2,0,0,0,.808-6.927Z" transform="translate(-24.415 -35.025)" fill="#f44545"/>
          <path id="Path_7" data-name="Path 7" d="M203.024,152.583l-40.338-9.5a8.133,8.133,0,0,1,0-15.833l40.339-9.5a17.889,17.889,0,1,1,0,34.826Zm38.664,32.052,33.754-16.041a16.132,16.132,0,1,0-19.621-24.521l-23.053,29.415a7.334,7.334,0,0,0,8.92,11.148Zm-132.95,78.491a10.32,10.32,0,0,0-10.619,12.2l4.395,23.494a4.69,4.69,0,0,0,9.121.422l6.549-22.987a10.316,10.316,0,0,0-9.445-13.132Zm64.23-225.372A15.658,15.658,0,1,0,157.31,22.1a15.658,15.658,0,0,0,15.658,15.659ZM145.984,261.542a10.32,10.32,0,1,0-14.966,13.4l19.6,13.685a4.69,4.69,0,0,0,6.8-6.089Zm249.6,15.185a15.658,15.658,0,1,0,15.658,15.658,15.658,15.658,0,0,0-15.658-15.658Zm24.9-149.472-40.339-9.5a17.888,17.888,0,1,0,0,34.825l40.339-9.5a8.132,8.132,0,0,0,0-15.832ZM290.651,301.164a2.845,2.845,0,0,0-3.206-4.412l-13.61,4.842a2.845,2.845,0,0,1-3.794-2.757l.1-3.791a5.981,5.981,0,0,0-10.915-3.546l-2.143,3.129a2.845,2.845,0,0,1-4.69,0l-8.164-11.917a2.845,2.845,0,0,0-5.187,1.685l.4,14.44a2.845,2.845,0,0,1-3.794,2.757l-3.572-1.271a5.981,5.981,0,0,0-6.748,9.283l2.315,3.005a2.845,2.845,0,0,1-1.449,4.461l-13.856,4.082a2.845,2.845,0,0,0,0,5.454l13.856,4.082a2.845,2.845,0,0,1,1.449,4.461l-2.315,3.005a5.981,5.981,0,0,0,6.748,9.283l3.572-1.271a2.845,2.845,0,0,1,3.794,2.757l-.4,14.44a2.845,2.845,0,0,0,5.187,1.685l8.164-11.917a2.845,2.845,0,0,1,4.69,0l2.143,3.129a5.981,5.981,0,0,0,10.915-3.546l-.1-3.791a2.845,2.845,0,0,1,3.794-2.757l13.61,4.842a2.845,2.845,0,0,0,3.206-4.412l-8.811-11.444a2.845,2.845,0,0,1,1.449-4.461l3.638-1.072a5.981,5.981,0,0,0,0-11.475l-3.638-1.072a2.845,2.845,0,0,1-1.449-4.461Zm.936-99.417a17.888,17.888,0,0,0-17.413,21.987l9.5,40.339a8.132,8.132,0,0,0,15.832,0l9.5-40.339a17.888,17.888,0,0,0-17.413-21.987ZM299.5,6.266a8.133,8.133,0,0,0-15.833,0l-9.5,40.34a17.888,17.888,0,1,0,34.825,0Z" transform="translate(-42.97 0.003)" fill="#f76c57"/>
          <path id="Path_8" data-name="Path 8" d="M213.051,31.777a15.635,15.635,0,0,0,5.1-.849,15.66,15.66,0,1,1-19.912-19.912,15.669,15.669,0,0,0,14.812,20.761Zm222.62,270.287a15.669,15.669,0,0,1-14.809-20.76,15.66,15.66,0,1,0,19.908,19.912,15.645,15.645,0,0,1-5.1.848Z" transform="translate(-73.345 -3.726)" fill="#fb5858"/>
          <path id="Path_9" data-name="Path 9" d="M313.559,335.656a8.186,8.186,0,1,1-8.186-8.186A8.186,8.186,0,0,1,313.559,335.656ZM98.642,227.2a8.186,8.186,0,1,0-8.186,8.186A8.186,8.186,0,0,0,98.642,227.2ZM81.284,320.5a9.862,9.862,0,1,0,.9,13.918,9.862,9.862,0,0,0-.9-13.918Zm-3.808-20.732a10.161,10.161,0,0,0,3.349-15.575L65.857,266.026A4.619,4.619,0,0,0,57.792,270l5.292,22.936a10.16,10.16,0,0,0,14.392,6.83ZM40.634,320.85,18.116,327.7a4.619,4.619,0,0,0,.578,8.974L41.9,340.592a10.161,10.161,0,1,0-1.27-19.741Zm67.6,3.553a5.157,5.157,0,1,0,.468,7.277,5.157,5.157,0,0,0-.468-7.277Zm56.015-6.1-23.214-3.91a10.16,10.16,0,1,0,1.27,19.74l22.519-6.854a4.619,4.619,0,0,0-.577-8.974Zm62.779,61.628a18.083,18.083,0,1,0,18.084,18.084,18.082,18.082,0,0,0-18.084-18.084Zm-83.471-90.781a4.619,4.619,0,0,0-5.182-2.458l-22.936,5.292a10.16,10.16,0,1,0,8.745,17.742l18.167-14.968A4.62,4.62,0,0,0,143.554,289.147Zm-40.139,1.346a5.157,5.157,0,1,0-7.277.468,5.157,5.157,0,0,0,7.277-.468Z" transform="translate(-14.842 -74.127)" fill="#fb5858"/>
          <g id="Group_1-2" data-name="Group 1" transform="translate(160.276 31.696)">
            <path id="Path_10" data-name="Path 10" d="M342.09,490.432a18.085,18.085,0,1,1-24.641-24.641,18.088,18.088,0,0,0,24.641,24.641Z" transform="translate(-274.432 -189.353)" fill="#f44545"/>
            <path id="Path_11" data-name="Path 11" d="M432.711,228.537a7.334,7.334,0,0,1-10.1,10.1l-31.778-19.667a16.132,16.132,0,1,1,22.207-22.207ZM300.1,83.811,268.317,64.144a7.334,7.334,0,0,0-10.1,10.095l19.667,31.778A16.132,16.132,0,1,0,300.1,83.811Zm91.813-27.394a7.334,7.334,0,0,0-13.2-5.45l-21.8,30.353a16.132,16.132,0,1,0,29.026,11.989Zm51.376,108.128-30.353-21.8a16.131,16.131,0,1,0-11.989,29.026l36.891,5.972a7.334,7.334,0,0,0,5.45-13.2Zm-84.754-4.592a8.186,8.186,0,1,0,8.186,8.186A8.186,8.186,0,0,0,358.531,159.953Zm43.573-33.1a8.186,8.186,0,1,0-8.186-8.186,8.186,8.186,0,0,0,8.186,8.186Zm-74.638-10.6a15.658,15.658,0,1,0,15.658,15.658A15.658,15.658,0,0,0,327.466,116.256Z" transform="translate(-257.124 -47.911)" fill="#f44545"/>
          </g>
        </g>
      </g>
    </g>
    <g id="Group_2" data-name="Group 2" transform="translate(2 -32.708)">
      <g id="death" transform="translate(-12.2 111.343)">
        <path id="Path_4-2" data-name="Path 4" d="M457.033,306.865c-79.994,0-150.168,56.158-150.168,131.513,0,36.7,17.056,69.284,43.528,92.657v56.578A19.588,19.588,0,0,0,369.98,607.2H544.086a19.588,19.588,0,0,0,19.587-19.587V531.035c26.471-23.374,43.528-55.962,43.528-92.657,0-75.355-70.174-131.513-150.168-131.513Z" fill="#90a7b2" fill-rule="evenodd"/>
        <path id="Path_5-2" data-name="Path 5" d="M476.62,607.2V531.652a19.587,19.587,0,1,0-39.174,0V607.2Z" fill="#486472" fill-rule="evenodd"/>
        <path id="Path_6-2" data-name="Path 6" d="M457.033,306.865V607.2H369.98a19.588,19.588,0,0,1-19.587-19.587V531.035c-26.471-23.374-43.528-55.962-43.528-92.657C306.865,363.022,377.039,306.865,457.033,306.865Z" fill="#607d8b" fill-rule="evenodd"/>
        <path id="Path_7-2" data-name="Path 7" d="M457.033,512.064a19.588,19.588,0,0,0-19.587,19.587V607.2h19.587Z" fill="#354d58" fill-rule="evenodd"/>
        <path id="Path_8-2" data-name="Path 8" d="M404.8,398.271a32.645,32.645,0,1,0,32.645,32.645A32.644,32.644,0,0,0,404.8,398.271Z" fill="#354d58" fill-rule="evenodd"/>
        <path id="Path_9-2" data-name="Path 9" d="M509.265,398.271a32.645,32.645,0,1,0,32.645,32.645A32.644,32.644,0,0,0,509.265,398.271Z" fill="#486472" fill-rule="evenodd"/>
        <path id="Path_10-2" data-name="Path 10" d="M457.033,306.865c-79.994,0-150.168,56.158-150.168,131.513,0,36.7,17.056,69.284,43.528,92.657v56.578A19.588,19.588,0,0,0,369.98,607.2H544.086a19.588,19.588,0,0,0,19.587-19.587V531.035c26.471-23.374,43.528-55.962,43.528-92.657,0-75.355-70.174-131.513-150.168-131.513Z" fill="#90a7b2" fill-rule="evenodd"/>
        <path id="Path_11-2" data-name="Path 11" d="M476.62,607.2V531.652a19.587,19.587,0,1,0-39.174,0V607.2Z" fill="#486472" fill-rule="evenodd"/>
        <path id="Path_12" data-name="Path 12" d="M457.033,306.865V607.2H369.98a19.588,19.588,0,0,1-19.587-19.587V531.035c-26.471-23.374-43.528-55.962-43.528-92.657C306.865,363.022,377.039,306.865,457.033,306.865Z" fill="#607d8b" fill-rule="evenodd"/>
        <path id="Path_13" data-name="Path 13" d="M457.033,512.064a19.588,19.588,0,0,0-19.587,19.587V607.2h19.587Z" fill="#354d58" fill-rule="evenodd"/>
        <path id="Path_14" data-name="Path 14" d="M404.8,398.271a32.645,32.645,0,1,0,32.645,32.645A32.644,32.644,0,0,0,404.8,398.271Z" fill="#354d58" fill-rule="evenodd"/>
        <path id="Path_15" data-name="Path 15" d="M509.265,398.271a32.645,32.645,0,1,0,32.645,32.645A32.644,32.644,0,0,0,509.265,398.271Z" fill="#486472" fill-rule="evenodd"/>
      </g>
      <path id="Path_16" data-name="Path 16" d="M457.033,306.865c-79.994,0-150.168,56.158-150.168,131.513,0,36.7,17.056,69.284,43.528,92.657v56.578A19.588,19.588,0,0,0,369.98,607.2H544.086a19.588,19.588,0,0,0,19.587-19.587V531.035c26.471-23.374,43.528-55.962,43.528-92.657,0-75.355-70.174-131.513-150.168-131.513Z" transform="translate(-12.2 111.343)" fill="#90a7b2" fill-rule="evenodd"/>
      <path id="Path_17" data-name="Path 17" d="M476.62,607.2V531.652a19.587,19.587,0,1,0-39.174,0V607.2Z" transform="translate(-12.2 111.343)" fill="#486472" fill-rule="evenodd"/>
      <path id="Path_18" data-name="Path 18" d="M457.033,306.865V607.2H369.98a19.588,19.588,0,0,1-19.587-19.587V531.035c-26.471-23.374-43.528-55.962-43.528-92.657C306.865,363.022,377.039,306.865,457.033,306.865Z" transform="translate(-12.2 111.343)" fill="#607d8b" fill-rule="evenodd"/>
      <path id="Path_19" data-name="Path 19" d="M457.033,512.064a19.588,19.588,0,0,0-19.587,19.587V607.2h19.587Z" transform="translate(-12.2 111.343)" fill="#354d58" fill-rule="evenodd"/>
      <path id="Path_20" data-name="Path 20" d="M404.8,398.271a32.645,32.645,0,1,0,32.645,32.645A32.644,32.644,0,0,0,404.8,398.271Z" transform="translate(-12.2 111.343)" fill="#354d58" fill-rule="evenodd"/>
      <path id="Path_21" data-name="Path 21" d="M509.265,398.271a32.645,32.645,0,1,0,32.645,32.645A32.644,32.644,0,0,0,509.265,398.271Z" transform="translate(-12.2 111.343)" fill="#486472" fill-rule="evenodd"/>
    </g>
  </g>
</svg>
