<svg height="512" viewBox="0 0 64 64" width="512" xmlns="http://www.w3.org/2000/svg"><g id="people-virus-covid19-tempurature-scan"><path d="m8.157 22.223a1.975 1.975 0 0 0 -.157.777 1.989 1.989 0 0 1 .157-.777z" fill="#9bc9ff"/><path d="m10 21a1.975 1.975 0 0 0 -.777.157 1.989 1.989 0 0 1 .777-.157z" fill="#9bc9ff"/><path d="m10 30a2.006 2.006 0 0 1 -2-2 2 2 0 0 0 2 2z" fill="#9bc9ff"/><path d="m8.157 22.223a2.08 2.08 0 0 1 1.066-1.066 2 2 0 0 0 -1.066 1.066z" fill="#9bc9ff"/><path d="m51 15 2 5h2v-5z" fill="#ed1c24"/><circle cx="51" cy="51" fill="#5eac24" r="10"/><path d="m51 41a10.029 10.029 0 0 0 -1.5.125 9.986 9.986 0 0 1 0 19.75 9.995 9.995 0 1 0 1.5-19.875z" fill="#559b20"/><path d="m47 9v6h4 4v5 11h6v-18l-6-4z" fill="#ff9811"/><path d="m55 9h-3l6 4v18h3v-18z" fill="#e5890f"/><path d="m33 21v-6a4 4 0 0 0 -4-4h-15a4 4 0 0 0 -4 4v6a2 2 0 0 0 -2 2v5a2 2 0 0 0 2 2v21h16v-8h6v-13h4z" fill="#ffbcab"/><path d="m24 43h2v8h-2z" fill="#ff9478"/><path d="m30 30h2v13h-2z" fill="#ff9478"/><path d="m33 21v-6a4 4 0 0 0 -4-4h-2a4 4 0 0 1 4 4v6l3 9h2z" fill="#ff9478"/><path d="m10 21a2 2 0 0 0 -2 2v5a2 2 0 0 0 2 2h2v-9z" fill="#dfa596"/><path d="m5 51h24a10 10 0 0 1 10 10 0 0 0 0 1 0 0h-36a0 0 0 0 1 0 0v-8a2 2 0 0 1 2-2z" fill="#006df0"/><path d="m13 3a10 10 0 0 0 -10 10v16.2a14.007 14.007 0 0 0 2.95 8.59l4.05 5.21v-13a2 2 0 0 1 -2-2v-5a2 2 0 0 1 2-2v-6a4 4 0 0 1 4-4h17a6 6 0 0 0 6-6v-2z" fill="#58595b"/><path d="m36.8 61h2.2a10 10 0 0 0 -10-10h-24a2 2 0 0 0 -2 2h24a10 10 0 0 1 9.8 8z" fill="#005ece"/><path d="m35 3a6 6 0 0 1 -6 6h-17a4 4 0 0 0 -4 4v10a2 2 0 0 1 2-2v-6a4 4 0 0 1 4-4h17a6 6 0 0 0 6-6v-2z" fill="#414042"/><path d="m10 43v-13a2 2 0 0 1 -2-2v12.427z" fill="#414042"/><path d="m21.465 18.878a5 5 0 0 0 7.069 0l.172-.171a1 1 0 1 0 -1.412-1.416l-.173.172a3.069 3.069 0 0 1 -4.243 0l-.172-.171a1 1 0 1 0 -1.412 1.416z" fill="#58595b"/><path d="m54.95 47.636-4.95 4.95-2.121-2.122a1 1 0 1 0 -1.414 1.414l2.828 2.829a1 1 0 0 0 1.414 0l5.657-5.657a1 1 0 0 0 -1.414-1.414z" fill="#f1f2f2"/><g fill="#ed1c24"><path d="m57 34h2v2h-2z"/><path d="m57 38h2v2h-2z"/><path d="m37 46h2v2h-2z"/><path d="m33 46h2v2h-2z"/><path d="m29 46h2v2h-2z"/><path d="m38 11h2v2h-2z"/><path d="m42 11h2v2h-2z"/></g><path d="m26.99 37.99h.01l5-.015v-2l-5 .015h-.01a1.98 1.98 0 0 1 -1.99-1.99 1 1 0 0 0 -2 0 3.978 3.978 0 0 0 3.99 3.99z" fill="#58595b"/></g></svg>