<?xml version="1.0"?>
<svg xmlns="http://www.w3.org/2000/svg" viewBox="0 0 64 64" width="512" height="512"><g id="virus-covid19-global-coronavirus-location"><circle cx="32" cy="32" r="29" style="fill:#2488ff"/><path d="M32,3a28.95,28.95,0,0,0-9,1.431,29,29,0,0,1,0,55.138A29,29,0,1,0,32,3Z" style="fill:#006df0"/><path d="M51,35c0,1.96-1.8,4.76-3.58,7.05A49.94,49.94,0,0,1,44,46s-1.59-1.63-3.26-3.75C38.91,39.93,37,37.02,37,35a7,7,0,0,1,14,0Z" style="fill:#006838"/><path d="M60.97,33.27c.02-.42.03-.84.03-1.27A28.987,28.987,0,0,0,36,3.28V12a2.006,2.006,0,0,0,2,2h2a2.006,2.006,0,0,1,2,2v3h1.93a1.981,1.981,0,0,1,1.66.89l2.82,4.22a1.981,1.981,0,0,0,1.66.89h4.24a2.006,2.006,0,0,1,1.97,1.67L57,31Z" style="fill:#4e901e"/><path d="M61,10c0,1.96-1.8,4.76-3.58,7.05A49.94,49.94,0,0,1,54,21s-1.59-1.63-3.26-3.75C48.91,14.93,47,12.02,47,10a7,7,0,0,1,14,0Z" style="fill:#006838"/><path d="M4.77,42A29.033,29.033,0,0,1,25,3.85V10a1.983,1.983,0,0,1-1.98,2,1.923,1.923,0,0,0-1.43.59A1.955,1.955,0,0,0,21,14V25h6.11a5.29,5.29,0,0,1,3.91,8.88l-.07.07A6.958,6.958,0,0,1,26,36H24a2.013,2.013,0,0,0-1.6.8l-2,2.67a1.969,1.969,0,0,0-.4,1.2v7.92a1,1,0,0,1-1.7.71l-1.66-1.66a3.018,3.018,0,0,1-.82-1.53l-.5-2.5A2,2,0,0,0,13.36,42Z" style="fill:#5eac24"/><path d="M55.257,49.328,52.52,47.37A2,2,0,0,0,51.36,47H51a2.006,2.006,0,0,1-2-2V44a2,2,0,0,0-1.579-1.95A51.009,51.009,0,0,1,44,46s-1.595-1.63-3.262-3.749A1.964,1.964,0,0,0,39.72,43.67l-.3,1.82A3,3,0,0,1,36.459,48H29l-3,4,3,5v3.846A29.435,29.435,0,0,0,32,61,28.952,28.952,0,0,0,55.257,49.328Z" style="fill:#46821b"/><circle cx="44" cy="35" r="2" style="fill:#ab2300"/><path d="M24,23c0,1.96-1.8,4.76-3.58,7.05A49.94,49.94,0,0,1,17,34s-1.59-1.63-3.26-3.75C11.91,27.93,10,25.02,10,23a7,7,0,0,1,14,0Z" style="fill:#006838"/><circle cx="17" cy="23" r="2" style="fill:#ab2300"/><circle cx="54" cy="10" r="2" style="fill:#ab2300"/><path d="M44,28a6.992,6.992,0,0,0-1.5.165A6.993,6.993,0,0,1,48,35c0,1.96-1.8,4.76-3.58,7.05-.678.875-1.349,1.668-1.917,2.315C43.378,45.362,44,46,44,46a49.94,49.94,0,0,0,3.42-3.95C49.2,39.76,51,36.96,51,35A7,7,0,0,0,44,28Z" style="fill:#005e32"/><path d="M54,3a6.992,6.992,0,0,0-1.5.165A6.993,6.993,0,0,1,58,10c0,1.96-1.8,4.76-3.58,7.05-.678.875-1.349,1.668-1.917,2.315C53.378,20.362,54,21,54,21a49.94,49.94,0,0,0,3.42-3.95C59.2,14.76,61,11.96,61,10A7,7,0,0,0,54,3Z" style="fill:#005e32"/><path d="M17,16a6.992,6.992,0,0,0-1.5.165A6.993,6.993,0,0,1,21,23c0,1.96-1.8,4.76-3.58,7.05-.678.875-1.349,1.668-1.917,2.315C16.378,33.362,17,34,17,34a49.94,49.94,0,0,0,3.42-3.95C22.2,27.76,24,24.96,24,23A7,7,0,0,0,17,16Z" style="fill:#005e32"/><path d="M45,39V37.816a2.746,2.746,0,0,0,.285-.117l.837.837a1,1,0,0,0,1.414-1.414l-.837-.837A2.746,2.746,0,0,0,46.816,36H48a1,1,0,0,0,0-2H46.816a2.746,2.746,0,0,0-.117-.285l.837-.837a1,1,0,0,0-1.414-1.414l-.837.837A2.746,2.746,0,0,0,45,32.184V31a1,1,0,0,0-2,0v1.184a2.746,2.746,0,0,0-.285.117l-.837-.837a1,1,0,0,0-1.414,1.414l.837.837a2.746,2.746,0,0,0-.117.285H40a1,1,0,0,0,0,2h1.184a2.746,2.746,0,0,0,.117.285l-.837.837a1,1,0,1,0,1.414,1.414l.837-.837a2.746,2.746,0,0,0,.285.117V39a1,1,0,0,0,2,0Zm-2-4a1,1,0,1,1,1,1A1,1,0,0,1,43,35Z" style="fill:#ed1c24"/><path d="M50,11h1.184a2.746,2.746,0,0,0,.117.285l-.837.837a1,1,0,1,0,1.414,1.414l.837-.837a2.746,2.746,0,0,0,.285.117V14a1,1,0,0,0,2,0V12.816a2.746,2.746,0,0,0,.285-.117l.837.837a1,1,0,1,0,1.414-1.414l-.837-.837A2.746,2.746,0,0,0,56.816,11H58a1,1,0,0,0,0-2H56.816a2.746,2.746,0,0,0-.117-.285l.837-.837a1,1,0,1,0-1.414-1.414l-.837.837A2.746,2.746,0,0,0,55,7.184V6a1,1,0,0,0-2,0V7.184a2.746,2.746,0,0,0-.285.117l-.837-.837a1,1,0,0,0-1.414,1.414l.837.837A2.746,2.746,0,0,0,51.184,9H50a1,1,0,0,0,0,2Zm5-1a1,1,0,1,1-1-1A1,1,0,0,1,55,10Z" style="fill:#ed1c24"/><path d="M19.816,22a2.746,2.746,0,0,0-.117-.285l.837-.837a1,1,0,0,0-1.414-1.414l-.837.837A2.746,2.746,0,0,0,18,20.184V19a1,1,0,0,0-2,0v1.184a2.746,2.746,0,0,0-.285.117l-.837-.837a1,1,0,1,0-1.414,1.414l.837.837a2.746,2.746,0,0,0-.117.285H13a1,1,0,0,0,0,2h1.184a2.746,2.746,0,0,0,.117.285l-.837.837a1,1,0,1,0,1.414,1.414l.837-.837a2.746,2.746,0,0,0,.285.117V27a1,1,0,0,0,2,0V25.816a2.746,2.746,0,0,0,.285-.117l.837.837a1,1,0,0,0,1.414-1.414l-.837-.837A2.746,2.746,0,0,0,19.816,24H21a1,1,0,0,0,0-2ZM16,23a1,1,0,1,1,1,1A1,1,0,0,1,16,23Z" style="fill:#ed1c24"/></g></svg>
